<svg xmlns="http://www.w3.org/2000/svg" xmlns:xlink="http://www.w3.org/1999/xlink" version="1.1" id="Layer_1" x="0px" y="0px" width="100px" height="100px" viewBox="0 0 100 100" enable-background="new 0 0 100 100" xml:space="preserve">
<path d="M92.179,87.179C91.73,86.381,81.155,67.59,77.954,62.697c-3.63-5.549-12.907-5.831-14.729-5.831l-0.102,0.001l-15.922-0.455  c-0.415-0.012-0.811-0.018-1.194-0.018c-1.497,0-5.154,0.008-7.766,1.481c0.185-1.857,0.42-3.604,0.712-5.237  c0.459,0.214,0.926,0.415,1.407,0.593c0.132,0.047,3.295,1.159,7.598,1.159c2.544,0,4.987-0.384,7.26-1.142  c6.217-2.072,8.61-8.677,10.722-14.504c0.706-1.95,1.374-3.792,2.151-5.444c2.333-4.958,12.546-11.45,16.285-13.533l2.366-1.318  l-1.502-2.253c-0.581-0.871-3.184-3.788-12.308-4.748c-2.232-0.235-4.473-0.354-6.661-0.354c-10.578,0-20.228,2.699-28.682,8.021  c-6.561,4.131-10.014,11.05-9.238,18.508c0.496,4.769,2.706,9.006,6.095,12.039c-0.922,4.261-1.458,9.194-1.632,14.977  c-2.007-1.227-8.979-5.56-12.299-8.511c-1.515-1.346-3.535-2.087-5.689-2.087c-3.17,0-5.877,1.565-6.897,3.988  c-0.597,1.418-1.092,4.315,2.296,7.782c5.901,6.037,16.847,16.259,16.957,16.361l0.72,0.672h32.103l5.929,8.058h28.342  L92.179,87.179z M33.323,37.108c-0.574-5.522,2.016-10.667,6.929-13.76c7.644-4.813,16.397-7.253,26.018-7.253  c2.014,0,4.079,0.11,6.138,0.327c2.631,0.277,4.523,0.725,5.861,1.177c-4.665,2.953-12.243,8.346-14.703,13.573  c-0.875,1.861-1.614,3.899-2.328,5.87c-1.893,5.223-3.68,10.157-7.602,11.464c-1.762,0.587-3.673,0.885-5.679,0.885  c-3.384,0-5.887-0.858-5.889-0.858c-1.014-0.375-1.957-0.87-2.828-1.455c2.831-9.476,8.125-15.248,16.184-22.438l-1.997-2.238  c-8.305,7.41-13.658,13.569-16.655,22.54C34.869,42.828,33.635,40.113,33.323,37.108z M68.46,85.904l-5.929-8.058H29.874  C27.346,75.476,18.749,67.382,13.8,62.318c-1.082-1.106-1.413-1.992-1.264-2.347c0.157-0.374,0.994-0.928,2.289-0.928  c0.928,0,1.769,0.293,2.367,0.825c4.23,3.76,13.22,9.168,13.601,9.396l0.538,0.323l28.903,1.398l0.006,0l0.236-4.995l-18.64-0.902  c-0.991-1.166-1.521-2.309-1.445-2.648c0.007-0.01,0.789-1.047,5.616-1.047c0.337,0,0.686,0.005,1.051,0.016l15.962,0.456  l0.145,0.001l0.06-0.001c2.84,0,8.699,0.746,10.545,3.568c2.262,3.458,8.611,14.586,11.946,20.47H68.46z"/>
</svg>