<svg xmlns="http://www.w3.org/2000/svg" xmlns:xlink="http://www.w3.org/1999/xlink" version="1.1" id="Layer_1" x="0px" y="0px" width="90px" height="90px" viewBox="0 0 90 90" enable-background="new 0 0 90 90" xml:space="preserve">
<path fill="#000000" d="M81.382,58.81V39.686c0-0.521-0.236-1.012-0.639-1.34L60.717,22.104c-0.457-0.369-1.066-0.482-1.624-0.3  l-2.764,0.904c-0.869-2.925-2.991-5.312-5.741-6.543c-0.319-4.343-2.697-8.467-6.732-10.826c-0.57-0.334-1.302-0.142-1.635,0.428  c-0.333,0.57-0.141,1.302,0.429,1.635c3.042,1.779,4.943,4.772,5.449,8.01c-0.571-0.097-1.155-0.159-1.754-0.159  c-5.746,0-10.422,4.676-10.422,10.422c0,1.229,0.226,2.406,0.619,3.501L9.409,38.046C8.7,38.277,8.22,38.939,8.22,39.686v19.336  c-4.868,2.647-7.722,5.845-7.722,9.293c0,9.117,19.924,16.511,44.501,16.511c24.578,0,44.502-7.394,44.502-16.511  C89.502,64.775,86.493,61.497,81.382,58.81z M77.932,41.538v12.772c-2.263,1.539-4.956,2.377-7.703,2.377  c-4.781,0-9.141-2.445-11.661-6.541c-0.217-0.353-0.604-0.568-1.019-0.568s-0.799,0.216-1.018,0.568  c-2.519,4.096-6.877,6.541-11.66,6.541c-4.781,0-9.14-2.445-11.659-6.539c-0.217-0.354-0.603-0.57-1.018-0.57  c-0.415,0-0.801,0.216-1.019,0.57c-2.519,4.094-6.876,6.539-11.659,6.539c-2.811,0-5.555-0.873-7.848-2.478V41.538H77.932z   M11.669,57.018c2.386,1.335,5.088,2.059,7.848,2.059c5.02,0,9.641-2.29,12.677-6.205c3.037,3.915,7.658,6.205,12.677,6.205  c5.02,0,9.642-2.29,12.677-6.205c3.038,3.915,7.659,6.205,12.68,6.205c2.7,0,5.353-0.694,7.703-1.977v10.902H11.669V57.018z   M46.344,18.702c0.602,0,1.184,0.085,1.74,0.229c-0.213,1.342-0.661,2.667-1.388,3.91c-0.335,0.569-0.143,1.302,0.428,1.634  c0.189,0.111,0.397,0.164,0.603,0.164c0.409,0,0.811-0.212,1.032-0.592c0.763-1.302,1.279-2.681,1.572-4.083  c1.803,1.262,2.986,3.349,2.986,5.711c0,3.844-3.129,6.972-6.974,6.972c-3.844,0-6.972-3.127-6.972-6.972  C39.372,21.829,42.5,18.702,46.344,18.702z M46.344,36.095c5.568,0,10.118-4.392,10.396-9.893l2.532-0.828l16.983,13.774H17.137  l21.126-6.906C40.175,34.59,43.086,36.095,46.344,36.095z"/>
</svg>