<svg xmlns="http://www.w3.org/2000/svg" xmlns:xlink="http://www.w3.org/1999/xlink" version="1.1" x="0px" y="0px" width="100px" height="100px" viewBox="0 0 100 100" enable-background="new 0 0 100 100" xml:space="preserve">
<g id="Captions">
</g>
<g id="Your_Icon">
	<path d="M100,37.238c0-11.791-10.606-21.349-23.689-21.349c-6.686,0-12.721,2.5-17.027,6.516c-2.076-0.605-4.267-0.936-6.535-0.936   c-11.081,0-20.372,7.733-22.887,18.15c-8.551,0.879-15.641,6.038-18.498,13.018C4.791,54.756,0.093,60.368,0.093,66.96   c0,8.411,7.646,15.228,17.077,15.228c0,0,0.002,0,0.003,0c-0.001,0.002-0.003,0.003-0.003,0.005c0,0,32.776,1.711,66.469-22.021   C95.082,52.11,98.751,47.3,98.607,44.458C99.508,42.203,100,39.772,100,37.238z M11.839,55.639c0,0,12.356-0.312,15.376,13.188   C30.235,82.323,23.338,60.175,11.839,55.639z M31.27,42.425c0,0,12.357-0.311,15.377,13.188S42.77,46.962,31.27,42.425z    M61.193,23.771c0,0,12.357-0.312,15.377,13.188C79.59,50.456,72.693,28.308,61.193,23.771z"/>
</g>
</svg>