<svg xmlns="http://www.w3.org/2000/svg" xmlns:xlink="http://www.w3.org/1999/xlink" version="1.1" x="0px" y="0px" width="100px" height="100px" viewBox="0 0 100 100" enable-background="new 0 0 100 100" xml:space="preserve">
<g id="Captions">
</g>
<g id="Your_Icon">
	<path d="M99.654,30.498c-0.033-0.586-0.26-1.239-0.5-1.784c-0.043-2.542-0.469-4.255-1.268-5.096   C94.771,20.27,68.223,11.002,60.127,8.23l-0.242-0.065c-0.16-0.033-3.959-0.788-7.578-0.788c-5.414,0-8.334,0.786-8.36,0.795   c-0.304,0.067-30.45,6.707-35.288,7.683c-5.106,1.042-7.017,4.008-7.603,5.24c-0.169,0.34-0.309,0.617-0.244,2.64   c-0.267,0.295-0.446,0.632-0.526,1c-0.608,1.984-0.065,3.629,0,3.814l0.142,0.402l0.299,0.304c0.531,0.541,1.075,1.073,1.622,1.604   c0.777,5.235,4.646,30.238,8.404,35.25c3.654,4.871,23.149,24.518,28.816,25.936c1.649,0.412,2.971,0.578,4.104,0.578   c2.057,0,3.496-0.551,5.16-1.189c0.57-0.219,1.188-0.457,1.896-0.693c4.159-1.387,32.526-13.373,37.565-20.936   c2.498-3.742,5.82-26.407,6.744-32.993c0.527-0.243,1.049-0.484,1.586-0.735C97.705,35.524,99.947,33.359,99.654,30.498z    M7.598,23.428l0.239-0.364c0.335-0.664,2.948-1.45,4.353-1.872l0.442-0.133c2.245-0.669,32.25-6.739,35.569-7.404   c1.061-0.205,2.473-0.205,4.106-0.205c1.553,0,4.045,0.468,4.994,0.851c0.336,0.135,2.178,0.813,5.977,2.209   c7.59,2.789,25.361,9.319,26.691,10.016c0.162,0.109,0.395,0.249,0.668,0.411c0.361,0.215,1.223,0.727,1.65,1.091   c-0.043,0.094-0.113,0.208-0.238,0.376c-3.072,2.422-37.959,14.06-41.153,14.771c-0.725,0.159-1.85,0.237-3.441,0.237l0,0   c-1.763,0-3.976-0.093-6.539-0.2l-1.937-0.08c-4.983-0.209-11.334-3.363-12.423-3.922c-1.726-1.426-17.066-14.1-18.685-15.487   C7.644,23.531,7.599,23.426,7.598,23.428z M85.104,67.678c-3.969,5.957-29.762,17.484-35.588,19.426   c-0.77,0.256-1.439,0.514-2.057,0.75c-2.324,0.891-3.489,1.34-6.96,0.471c-4.131-1.033-22.739-19.262-26.679-24.516   c-2.173-2.898-5.102-17.471-6.942-28.776c8.617,7.553,17.553,13.458,20.41,15.286l-0.035,3.193l1.102,0.523   c0.227,0.109,5.604,2.645,10.405,2.912c0.531,0.029,1.108,0.045,1.714,0.045l0,0c4.607,0,10.789-0.773,11.051-0.807L53,56   l0.277-3.559c3.766-0.684,14.664-3.373,37.617-13.735C89.182,50.451,86.535,65.533,85.104,67.678z"/>
	<g>
		<ellipse cx="49.776" cy="26.013" rx="6.02" ry="2.083"/>
	</g>
</g>
</svg>