<svg xmlns="http://www.w3.org/2000/svg" xmlns:xlink="http://www.w3.org/1999/xlink" version="1.1" id="Layer_1" x="0px" y="0px" width="100px" height="100px" viewBox="0 0 100 100" enable-background="new 0 0 100 100" xml:space="preserve">
<g>
	<path fill="#000000" d="M50,38.75c-23.458,0-47.128,6.938-47.128,22.438c0,7.231,5.155,12.598,13.034,16.268   c1.88,4.843,4.707,8.634,8.509,11.437c7.376,5.437,17.187,6.17,25.81,6.17c8.623,0,18.432-0.733,25.809-6.17   c3.871-2.854,6.728-6.734,8.607-11.704c7.565-3.661,12.486-8.939,12.486-16C97.128,45.688,73.458,38.75,50,38.75z M50.225,91.062   c-12.376,0-23.16-1.784-28.852-11.466c8.294,2.729,18.479,4.03,28.627,4.03c10.38,0,20.797-1.361,29.191-4.219   C73.528,89.258,62.682,91.062,50.225,91.062z M92.159,65.51c-0.281,0.599-0.621,1.179-1.017,1.739   c-1.185,1.682-2.864,3.19-4.934,4.53c-1.422,0.921-3.032,1.76-4.793,2.519C73.174,77.849,61.59,79.627,50,79.627   c-11.349,0-22.693-1.705-30.899-5.109c0,0,0,0,0-0.001c-1.75-0.726-3.351-1.531-4.784-2.412c-2.222-1.365-4.038-2.912-5.312-4.65   c-0.458-0.624-0.848-1.272-1.164-1.944s-0.558-1.368-0.721-2.089c-0.164-0.72-0.248-1.464-0.248-2.232   c0-0.384,0.021-0.763,0.062-1.135c0.581-5.209,5.16-9.242,11.931-12.1c0.968-0.408,1.979-0.792,3.031-1.152   c1.241-0.425,2.543-0.812,3.885-1.171c0.364-0.097,0.726-0.196,1.096-0.288c1.158-0.288,2.348-0.552,3.564-0.792   c0.837-0.165,1.688-0.316,2.549-0.459c0.264-0.044,0.533-0.082,0.799-0.124c0.604-0.094,1.21-0.186,1.824-0.269   c0.313-0.043,0.63-0.082,0.946-0.122c0.584-0.073,1.172-0.143,1.764-0.206c0.317-0.034,0.635-0.067,0.954-0.099   c0.622-0.061,1.248-0.116,1.876-0.166c0.283-0.022,0.566-0.047,0.85-0.067c0.763-0.055,1.53-0.101,2.299-0.14   c0.148-0.007,0.294-0.018,0.442-0.025c0.96-0.045,1.923-0.078,2.888-0.098c0.001,0,0.002,0,0.003,0   c0.91-0.019,1.821-0.024,2.731-0.021c0.603,0.002,1.204,0.016,1.806,0.027c0.523,0.01,1.047,0.016,1.568,0.034   c0.953,0.032,1.904,0.074,2.852,0.13c0.493,0.029,0.981,0.071,1.473,0.106c0.562,0.041,1.126,0.08,1.686,0.129   c0.499,0.044,0.993,0.098,1.489,0.149c0.546,0.057,1.091,0.114,1.632,0.179c0.484,0.058,0.964,0.122,1.443,0.187   c0.549,0.075,1.095,0.153,1.637,0.236c0.457,0.07,0.911,0.143,1.361,0.219c0.564,0.096,1.121,0.198,1.674,0.304   c0.416,0.079,0.832,0.157,1.241,0.241c0.609,0.126,1.206,0.263,1.8,0.401c0.339,0.079,0.684,0.152,1.017,0.235   c0.866,0.214,1.714,0.442,2.543,0.683c0.05,0.015,0.104,0.027,0.153,0.042c3.007,0.884,5.756,1.941,8.13,3.179   c0.009,0.004,0.019,0.009,0.027,0.013c0.046,0.024,0.088,0.05,0.134,0.074c0.718,0.38,1.397,0.778,2.044,1.19   c0.712,0.455,1.375,0.931,1.992,1.425c0.478,0.384,0.938,0.775,1.354,1.183c0.367,0.358,0.7,0.729,1.017,1.106   c0.805,0.959,1.439,1.979,1.891,3.057c0.187,0.445,0.344,0.9,0.465,1.367c0.119,0.459,0.218,0.924,0.271,1.401   c0.041,0.372,0.062,0.751,0.062,1.135c0,0.769-0.084,1.513-0.247,2.232C92.717,64.142,92.475,64.838,92.159,65.51z"/>
	<path fill="#000000" d="M73.675,47.931c-6.301-1.7-14.708-2.636-23.674-2.636c-8.966,0-17.374,0.937-23.674,2.636   c-7.682,2.073-12.053,5.252-13.033,9.469c-0.007,0.039-0.015,0.078-0.021,0.117c-0.035,0.16-0.058,0.324-0.083,0.487   c-0.034,0.249-0.062,0.496-0.079,0.737c-0.001,0.021-0.002,0.043-0.003,0.064c-0.009,0.16-0.026,0.317-0.026,0.48   c0,0.037,0.005,0.073,0.006,0.11c0.037,2.918,1.509,5.403,4.391,7.437c2.161,1.526,5.109,2.801,8.849,3.81   c6.301,1.7,14.708,2.637,23.674,2.637c8.966,0,17.373-0.937,23.674-2.637c4.032-1.088,7.141-2.484,9.337-4.172   c2.591-1.991,3.908-4.39,3.908-7.185C86.92,54.123,82.464,50.303,73.675,47.931z M30.57,59.637c0-1.105,0.895-2,2-2   c1.103,0,2,0.895,2,2c0,1.104-0.896,2-2,2C31.465,61.637,30.57,60.741,30.57,59.637z M38.799,63.493c0-1.105,0.895-2,2-2   c1.103,0,2,0.895,2,2c0,1.104-0.896,2-2,2C39.694,65.493,38.799,64.598,38.799,63.493z M44.007,57.634c0-1.105,0.895-2,2-2   c1.103,0,2,0.895,2,2c0,1.104-0.896,2-2,2C44.902,59.634,44.007,58.738,44.007,57.634z M51.309,63.492c0-1.105,0.895-2,2-2   c1.104,0,2,0.895,2,2c0,1.104-0.896,2-2,2C52.203,65.492,51.309,64.597,51.309,63.492z M56.41,57.982c0-1.105,0.895-2,2-2   c1.104,0,2,0.895,2,2c0,1.104-0.896,2-2,2C57.305,59.982,56.41,59.087,56.41,57.982z M64.886,61.188c0-1.105,0.895-2,2-2   c1.104,0,2,0.895,2,2c0,1.104-0.896,2-2,2C65.78,63.188,64.886,62.293,64.886,61.188z M82.021,61.842   c0-13.047-64.04-13.047-64.04,0c-0.553-0.754-0.864-1.565-0.89-2.435c-0.001-0.04-0.009-0.079-0.009-0.12   c0-0.263,0.035-0.519,0.084-0.771c0-0.001,0-0.001,0-0.001c1.223-6.146,17.024-9.221,32.834-9.221   c16.459,0,32.919,3.331,32.919,9.992C82.92,60.202,82.6,61.053,82.021,61.842z"/>
	<path fill="#000000" d="M55.125,33.156c0.106,0,0.215-0.009,0.323-0.026c1.091-0.178,1.83-1.206,1.652-2.296   c-1.229-7.538-0.197-9.35,0.894-11.267c1.651-2.902,2.716-5.597,1.363-13.888c-0.178-1.09-1.198-1.83-2.296-1.652   c-1.09,0.178-1.829,1.206-1.651,2.296c1.229,7.538,0.198,9.349-0.893,11.267c-1.651,2.902-2.716,5.597-1.364,13.889   C53.312,32.458,54.161,33.156,55.125,33.156z"/>
	<path fill="#000000" d="M46.029,37.651c0.107,0,0.215-0.009,0.324-0.026c1.09-0.178,1.83-1.206,1.652-2.296   c-1.229-7.538-0.198-9.349,0.894-11.267c1.651-2.902,2.716-5.597,1.364-13.888c-0.178-1.09-1.208-1.827-2.296-1.652   c-1.09,0.178-1.83,1.206-1.652,2.296c1.229,7.538,0.199,9.349-0.892,11.267c-1.652,2.902-2.716,5.597-1.365,13.888   C44.217,36.954,45.066,37.651,46.029,37.651z"/>
</g>
</svg>