<svg xmlns="http://www.w3.org/2000/svg" xmlns:xlink="http://www.w3.org/1999/xlink" version="1.1" x="0px" y="0px" viewBox="0 0 100 100" enable-background="new 0 0 100 100" xml:space="preserve" height="100px" width="100px">
<g id="Layer_1">
</g>
<g id="Layer_2">
	<path d="M66,87.1c3-3.4,4.9-7.7,5.3-12.4c0.4-4.7-0.7-9.3-3.2-13.2c-0.5-0.8-1-1.8-1.4-2.6l-1.1-2.2c-1.9-6.6-3-11.9-3-15.2V19.3   h-6.7L49.5,6.7H34.7L41,19.3h-4.3v22.2c0,3.3-1,8.4-2.9,14.8l-0.3,1c-0.5,1.7-1.2,3.5-2.3,5.5c-1.7,3.1-2.5,6.6-2.5,10.1   c0,5.3,1.9,10.1,5.1,13.8C24.4,87.5,18,89,18,90.8c0,2.5,13.5,4.6,30.2,4.6c16.7,0,30.2-2,30.2-4.6C78.4,89.3,73.5,87.9,66,87.1z    M46.4,11.7l3.8,7.6h-3.7l-3.8-7.6H46.4z M55.5,26.3V30H43.7v-3.7H55.5z M37.4,66.2c1.3-2.5,2.3-4.8,2.9-7l0.3-0.9   c2.1-7.1,3.1-12.7,3.1-16.7V35h11.8v6.6c0,4.1,1.1,10,3.4,17.5l0.1,0.3l1.4,2.8c0.5,1,1.1,2.1,1.8,3.2c1.7,2.6,2.4,5.7,2.2,8.9   c-0.5,6.7-6,12.3-12.6,13c-0.6,0.1-1.1,0.1-1.7,0.1c-7.9,0-14.3-6.4-14.3-14.3C35.7,70.6,36.3,68.2,37.4,66.2z"/>
	<path d="M60.4,66l-0.7-1.1H40.4L39.6,66c-1.4,2.1-2.1,4.5-2.1,7c0,6.9,5.6,12.5,12.5,12.5s12.5-5.6,12.5-12.5   C62.5,70.4,61.8,68,60.4,66z M50,80.4c-4.1,0-7.5-3.4-7.5-7.5c0-1.1,0.2-2.1,0.7-3.1h13.7c0.4,1,0.7,2,0.7,3.1   C57.5,77.1,54.1,80.4,50,80.4z"/>
</g>
</svg>